<svg xmlns="http://www.w3.org/2000/svg" version="1.1" xmlns:xlink="http://www.w3.org/1999/xlink" width="1500" height="261" viewBox="0 0 1500 261"><svg xml:space="preserve" width="1500" height="261" data-version="2" data-id="lg_zWiqNRPHsp6jTWf5wv" viewBox="0 0 643 261" x="0" y="0"><rect width="100%" height="100%" fill="transparent"></rect><path fill="#ff2148" d="M225.008 258.364H6.29V98.534c0-52.964 48.96-95.898 109.359-95.898 60.399 0 109.359 42.934 109.359 95.898z"></path><path fill="#fff" d="M334.9 118.308v-68.42h-13.98v37.04q0 2.65-1.07 5.04-1.07 2.4-2.9 4.22-1.83 1.83-4.22 2.9-2.4 1.07-5.04 1.07-5.17 0-8.51-1.76-3.34-1.77-4.97-5.23-1.64-3.47-1.64-8.38v-34.9h-13.99v36.03q0 8.32 3.4 14.3 3.41 5.99 9.52 9.27 6.11 3.27 14.05 3.27 2.89 0 5.54-.38 2.65-.37 5.1-1.45 2.46-1.07 4.73-2.83v9.2q0 3.4-.76 5.67-.75 2.27-2.01 3.71-1.26 1.45-3.03 2.21-1.76.76-3.78 1.01l4.41 10.58q10.33-1.01 14.74-6.61 4.41-5.61 4.41-15.56m54.31 19.78h16.63l-21.8-88.2h-19.53l-21.42 88.2h15.75l5.04-23.19h20.29zm-8.19-37.93h-13.73l6.8-32.25zm61.61 37.93v-74.22h18.65v-13.98h-50.9v13.98h18.39v74.22zm53.18-88.2h-27.47v88.2h13.98v-24.7h16.51q.76 0 1.51-.12l8.7 24.82h14.86l-10.83-29.36q3.02-2.14 5.35-5.8 2.33-3.65 3.66-9.07 1.32-5.42 1.32-12.85 0-9.32-2.39-15.44-2.4-6.11-6.43-9.51-4.03-3.4-8.95-4.79-4.91-1.38-9.82-1.38m-5.17 50.27h-8.32v-36.41h8.32q4.91 0 8.44.5 3.53.51 5.8 2.21t3.34 5.16q1.07 3.47 1.07 9.39 0 6.43-1.07 10.21-1.07 3.78-3.34 5.73-2.27 1.95-5.8 2.58-3.53.63-8.44.63m86.31 37.93h16.63l-21.8-88.2h-19.53l-21.42 88.2h15.75l5.04-23.19h20.29zm-8.19-37.93h-13.73l6.8-32.25zm-255.28 128.47-19.78-61.99h-13.98v88.2h13.98v-46.62l14.62 46.62h10.46l14.86-46.75v46.75h13.86v-88.2h-13.86zm41.96-61.99v13.23l8.44.25v74.72h13.99v-88.2zm32.89 0v88.2h45.61v-12.85h-31.63v-75.35zm54.05 0v88.2h41.96v-12.73h-27.97v-26.21h13.35l3.91-13.23h-17.26v-22.17h28.22v-13.86zm99.42 14.99 4.03-11.59q-3.03-1.64-6.43-2.65-3.4-1-6.8-1.51-3.4-.5-6.93-.5-4.79 0-9.83 1.2-5.04 1.19-9.39 3.78-4.34 2.58-6.99 6.8-2.65 4.22-2.65 10.27 0 4.91 1.77 8.63 1.76 3.72 4.79 6.55 3.02 2.84 6.8 5.04 3.78 2.21 7.75 4.03 3.97 1.83 7.75 3.66 3.78 1.82 6.8 3.9 3.03 2.08 4.79 4.67 1.76 2.58 1.76 5.98 0 3.4-1.38 5.92-1.39 2.52-3.78 4.16-2.4 1.64-5.29 2.46-2.9.82-5.93.82-3.9 0-7.87-1.01t-7.56-2.96q-3.59-1.96-6.36-4.85l-7.69 9.32q3.65 4.16 8.38 6.93 4.72 2.77 10.08 4.22 5.35 1.45 10.77 1.45 6.3 0 11.97-1.51 5.67-1.51 10.15-4.73 4.47-3.21 6.99-8.25 2.52-5.04 2.52-12.1 0-5.41-1.83-9.57t-4.85-7.31q-3.02-3.15-6.87-5.54-3.84-2.4-7.93-4.35-4.1-1.95-7.94-3.65-3.85-1.71-6.87-3.47-3.02-1.76-4.85-3.84-1.83-2.08-1.83-4.73 0-2.64 1.45-4.41 1.45-1.76 3.72-2.77 2.27-1.01 4.72-1.45 2.46-.44 4.48-.44 2.89 0 5.67.38 2.77.38 5.48 1.13 2.71.76 5.23 1.89"></path><path fill="#fff" d="M102.79 164.828v-65.16H91.63v34.56q0 3.12-1.26 5.58t-3.42 4.2q-2.16 1.74-4.86 2.64-2.7.9-5.46.9-5.4 0-9-1.8-3.6-1.8-5.4-5.34-1.8-3.54-1.8-8.7v-32.04H49.27v32.64q0 7.92 3.12 13.56 3.12 5.64 8.88 8.76 5.76 3.12 13.44 3.12 3.12 0 6.18-.48 3.06-.48 5.82-1.68 2.76-1.2 4.92-3.24v12q0 3.12-.6 5.4-.6 2.28-1.68 3.78t-2.7 2.4q-1.62.9-3.54 1.38l3.36 8.16q8.52-.96 12.42-6.18 3.9-5.22 3.9-14.46m42-1.2-21-63.96h-11.16v84h11.16v-51l16.44 51h9.12l16.8-51.12v51.12h11.04v-84h-11.04z" paint-order="stroke"></path><path fill="#fff" d="M577.11 242.378q0-1.81.88-2.57.88-.77 2.15-.77 1.32 0 2.23.77.9.76.9 2.57 0 1.79-.9 2.6-.91.82-2.23.82-1.27 0-2.15-.82-.88-.81-.88-2.6m19.62 2.69h-4.4v-37.83h4.4zm39.98-37.83v37.83h-5.07l-20.62-31.78h-.21l.18 2.89q.1 1.62.17 3.44.06 1.82.06 3.71v21.74h-4.09v-37.83h5.05l20.55 31.67h.18q-.05-.9-.13-2.57t-.14-3.6q-.07-1.93-.07-3.58v-21.92z"></path></svg></svg>